<svg xmlns="http://www.w3.org/2000/svg" xmlns:xlink="http://www.w3.org/1999/xlink" version="1.1" x="0px" y="0px" viewBox="0 0 50 62.5" enable-background="new 0 0 50 50" xml:space="preserve"><polygon points="20,28.5 20.7,27.8 18.9,26 23,26 23,24 18.9,24 20.7,22.2 20,21.5 19.3,20.7 15.9,24.1 15,25 19.3,29.2 "/><polygon points="27,24 27,26 31.1,26 29.3,27.8 30,28.5 30.7,29.2 34.1,25.8 35,25 30.7,20.7 30,21.4 29.3,22.2 31.1,24 "/><polygon points="22.2,20.7 24,18.9 24,23 26,23 26,18.9 27.8,20.7 28.6,20 29.3,19.3 25.9,15.9 25,15 20.8,19.3 21.5,20 "/><polygon points="21.4,30 20.7,30.7 24.1,34.1 25,35 29.2,30.7 28.5,30 27.8,29.3 26,31.1 26,27 24,27 24,31.1 22.2,29.3 "/><text x="0" y="65" fill="#000000" font-size="5px" font-weight="bold" font-family="'Helvetica Neue', Helvetica, Arial-Unicode, Arial, Sans-serif">Created by Ezgi Nazlı</text><text x="0" y="70" fill="#000000" font-size="5px" font-weight="bold" font-family="'Helvetica Neue', Helvetica, Arial-Unicode, Arial, Sans-serif">from the Noun Project</text></svg>