<svg xmlns="http://www.w3.org/2000/svg" xmlns:xlink="http://www.w3.org/1999/xlink" version="1.1" x="0px" y="0px" viewBox="0 0 512 640" style="enable-background:new 0 0 512 512;" xml:space="preserve"><g><g><path d="M256,199.529c7.784,0,14.118-6.333,14.118-14.118c0-7.784-6.333-14.118-14.118-14.118    s-14.118,6.333-14.118,14.118C241.882,193.196,248.216,199.529,256,199.529z"/><path d="M270.118,225.336v29.243c27.617-5.629,49.421-27.433,55.05-55.05h-29.243    C291.664,211.542,282.131,221.076,270.118,225.336z"/><path d="M241.882,145.487v-29.243c-27.617,5.629-49.421,27.433-55.05,55.05h29.243    C220.336,159.281,229.869,149.748,241.882,145.487z"/><path d="M295.924,171.294h29.243c-5.629-27.617-27.433-49.421-55.05-55.05v29.243    C282.131,149.748,291.664,159.281,295.924,171.294z"/><path d="M241.882,225.336c-12.013-4.261-21.546-13.794-25.807-25.807h-29.243    c5.629,27.617,27.433,49.421,55.05,55.05V225.336z"/><path d="M496,383.059V16H16v367.058h197.647v34.797l-42.353,28.236v21.673h-28.235V496h225.882v-28.235h-28.235    v-21.673l-42.353-28.236l0,0v-34.797H496z M383.059,312.471h-28.235v-28.235h28.235V312.471z M411.294,114.824h28.235v28.235    h-28.235V114.824z M411.294,171.294h28.235v28.235h-28.235V171.294z M411.294,227.765h28.235V256h-28.235V227.765z     M411.294,284.235h28.235v28.235h-28.235V284.235z M100.706,312.471H72.471v-28.235h28.235V312.471z M100.706,256H72.471v-28.235    h28.235V256z M100.706,199.529H72.471v-28.235h28.235V199.529z M100.706,143.059H72.471v-28.235h28.235V143.059z M157.177,312.471    h-28.235v-28.235h28.235V312.471z M158.189,199.529h-29.248v-28.235h29.248c6.209-43.215,40.478-77.484,83.693-83.693V58.353    h28.235v29.248c43.215,6.209,77.484,40.478,83.693,83.693h29.248v28.235h-29.248c-6.209,43.215-40.478,77.484-83.693,83.693    v29.248h-28.235v-29.248C198.668,277.014,164.398,242.744,158.189,199.529z"/></g></g><text x="0" y="527" fill="#000000" font-size="5px" font-weight="bold" font-family="'Helvetica Neue', Helvetica, Arial-Unicode, Arial, Sans-serif">Created by Icon Market</text><text x="0" y="532" fill="#000000" font-size="5px" font-weight="bold" font-family="'Helvetica Neue', Helvetica, Arial-Unicode, Arial, Sans-serif">from the Noun Project</text></svg>