<svg xmlns="http://www.w3.org/2000/svg" data-name="Layer 1" viewBox="0 0 100 125" x="0px" y="0px"><title>76 all</title><path d="M77.62,27.06H66a3,3,0,0,0-3,3V41.7a3,3,0,0,0,3,3h2.45v1.46A3,3,0,0,1,66.34,49L53.24,53.2V25.38h4.28A3,3,0,0,0,60.19,21L52.91,6.79a3,3,0,0,0-5.34,0L40.29,21A3,3,0,0,0,43,25.38h4.28V63l-13.5-3.86a3,3,0,0,1-2.17-2.88v-1a9.19,9.19,0,1,0-6,0v1a9,9,0,0,0,6.52,8.65l15.15,4.34v1.71a12.16,12.16,0,1,0,6,0V59.5l14.92-4.76a9,9,0,0,0,6.27-8.58V44.7h3.19a3,3,0,0,0,3-3V30.06A3,3,0,0,0,77.62,27.06ZM50.24,14.74l2.37,4.64H47.87ZM28.57,43.37a3.19,3.19,0,1,1-3.19,3.19A3.19,3.19,0,0,1,28.57,43.37ZM56.4,82.69a6.16,6.16,0,1,1-6.16-6.16A6.17,6.17,0,0,1,56.4,82.69Zm18.22-44H69V33.06h5.64Z"/><text x="0" y="115" fill="#000000" font-size="5px" font-weight="bold" font-family="'Helvetica Neue', Helvetica, Arial-Unicode, Arial, Sans-serif">Created by Anil</text><text x="0" y="120" fill="#000000" font-size="5px" font-weight="bold" font-family="'Helvetica Neue', Helvetica, Arial-Unicode, Arial, Sans-serif">from the Noun Project</text></svg>